<svg xmlns="http://www.w3.org/2000/svg" viewBox="0 0 960 540"><defs><radialGradient id="bg"><stop stop-color="#25214d"/><stop offset="1" stop-color="#0c0917"/></radialGradient><radialGradient id="light"><stop stop-color="#e0bcff" stop-opacity=".35"/><stop offset="1" stop-color="#e0bcff" stop-opacity="0"/></radialGradient><linearGradient id="ink" x1="0" y1="0" x2="1" y2="1"><stop stop-color="#e0bcff"/><stop offset="1" stop-color="#684e96"/></linearGradient><filter id="glow"><feGaussianBlur stdDeviation="8"/></filter></defs><rect width="960" height="540" fill="url(#bg)"/><circle cx="37" cy="15" r="1.8" fill="#ddd0ff" opacity="0.2"/><circle cx="210" cy="104" r="0.8" fill="#ddd0ff" opacity="0.325"/><circle cx="383" cy="193" r="0.8" fill="#ddd0ff" opacity="0.45"/><circle cx="556" cy="282" r="1.8" fill="#ddd0ff" opacity="0.575"/><circle cx="729" cy="371" r="0.8" fill="#ddd0ff" opacity="0.7"/><circle cx="902" cy="460" r="0.8" fill="#ddd0ff" opacity="0.2"/><circle cx="115" cy="39" r="1.8" fill="#ddd0ff" opacity="0.325"/><circle cx="288" cy="128" r="0.8" fill="#ddd0ff" opacity="0.45"/><circle cx="461" cy="217" r="0.8" fill="#ddd0ff" opacity="0.575"/><circle cx="634" cy="306" r="1.8" fill="#ddd0ff" opacity="0.7"/><circle cx="807" cy="395" r="0.8" fill="#ddd0ff" opacity="0.2"/><circle cx="20" cy="484" r="0.8" fill="#ddd0ff" opacity="0.325"/><circle cx="193" cy="63" r="1.8" fill="#ddd0ff" opacity="0.45"/><circle cx="366" cy="152" r="0.8" fill="#ddd0ff" opacity="0.575"/><circle cx="539" cy="241" r="0.8" fill="#ddd0ff" opacity="0.7"/><circle cx="712" cy="330" r="1.8" fill="#ddd0ff" opacity="0.2"/><circle cx="885" cy="419" r="0.8" fill="#ddd0ff" opacity="0.325"/><circle cx="98" cy="508" r="0.8" fill="#ddd0ff" opacity="0.45"/><circle cx="271" cy="87" r="1.8" fill="#ddd0ff" opacity="0.575"/><circle cx="444" cy="176" r="0.8" fill="#ddd0ff" opacity="0.7"/><circle cx="617" cy="265" r="0.8" fill="#ddd0ff" opacity="0.2"/><circle cx="790" cy="354" r="1.8" fill="#ddd0ff" opacity="0.325"/><circle cx="3" cy="443" r="0.8" fill="#ddd0ff" opacity="0.45"/><circle cx="176" cy="22" r="0.8" fill="#ddd0ff" opacity="0.575"/><circle cx="349" cy="111" r="1.8" fill="#ddd0ff" opacity="0.7"/><circle cx="522" cy="200" r="0.8" fill="#ddd0ff" opacity="0.2"/><circle cx="695" cy="289" r="0.8" fill="#ddd0ff" opacity="0.325"/><circle cx="868" cy="378" r="1.8" fill="#ddd0ff" opacity="0.45"/><circle cx="81" cy="467" r="0.8" fill="#ddd0ff" opacity="0.575"/><circle cx="254" cy="46" r="0.8" fill="#ddd0ff" opacity="0.7"/><circle cx="427" cy="135" r="1.8" fill="#ddd0ff" opacity="0.2"/><circle cx="600" cy="224" r="0.8" fill="#ddd0ff" opacity="0.325"/><circle cx="773" cy="313" r="0.8" fill="#ddd0ff" opacity="0.45"/><circle cx="946" cy="402" r="1.8" fill="#ddd0ff" opacity="0.575"/><circle cx="159" cy="491" r="0.8" fill="#ddd0ff" opacity="0.7"/><circle cx="332" cy="70" r="0.8" fill="#ddd0ff" opacity="0.2"/><circle cx="505" cy="159" r="1.8" fill="#ddd0ff" opacity="0.325"/><circle cx="678" cy="248" r="0.8" fill="#ddd0ff" opacity="0.45"/><circle cx="851" cy="337" r="0.8" fill="#ddd0ff" opacity="0.575"/><circle cx="64" cy="426" r="1.8" fill="#ddd0ff" opacity="0.7"/><circle cx="237" cy="5" r="0.8" fill="#ddd0ff" opacity="0.2"/><circle cx="410" cy="94" r="0.8" fill="#ddd0ff" opacity="0.325"/><circle cx="583" cy="183" r="1.8" fill="#ddd0ff" opacity="0.45"/><circle cx="756" cy="272" r="0.8" fill="#ddd0ff" opacity="0.575"/><circle cx="929" cy="361" r="0.8" fill="#ddd0ff" opacity="0.7"/><circle cx="142" cy="450" r="1.8" fill="#ddd0ff" opacity="0.2"/><circle cx="315" cy="29" r="0.8" fill="#ddd0ff" opacity="0.325"/><circle cx="488" cy="118" r="0.8" fill="#ddd0ff" opacity="0.45"/><circle cx="480" cy="260" r="250" fill="url(#light)"/><circle cx="650" cy="120" r="54" fill="#ded0f4" opacity=".9"/><circle cx="670" cy="108" r="48" fill="#25214d"/><path d="M0 385 100 318 220 365 350 305 470 365 630 284 760 342 860 293 960 340V540H0Z" fill="#211b3b"/><path d="M0 420 150 385 280 410 450 370 610 425 780 367 960 395V540H0Z" fill="#110f24"/><g stroke="#b68bea" stroke-width="2" opacity=".7"><path d="M290 120 390 65 480 130 575 70M480 130 470 205"/><circle cx="290" cy="120" r="4" fill="#fff"/><circle cx="390" cy="65" r="5" fill="#fff"/><circle cx="480" cy="130" r="5" fill="#fff"/><circle cx="575" cy="70" r="4" fill="#fff"/></g><path d="M417 410C391 398 394 365 411 344L406 312 432 331Q452 322 472 332L498 312 492 350Q510 372 493 394L503 424H416Z" fill="#cdb4f4"/><path d="M418 402Q379 396 382 363Q369 378 378 397Q389 417 421 417" fill="#cdb4f4"/><ellipse cx="431" cy="354" rx="4" ry="7" fill="#3b2357"/><ellipse cx="474" cy="354" rx="4" ry="7" fill="#3b2357"/><path d="m449 363 5 4 5-4" fill="none" stroke="#674875" stroke-width="2"/><text x="55" y="230" font-family="Georgia,serif" font-size="78" fill="#f3e6ff">Lumi</text><text x="57" y="270" font-family="Georgia,serif" font-size="27" fill="#bdb0db">&amp; the Lost Stars</text><text x="36" y="500" font-family="monospace" font-size="12" letter-spacing="4" fill="#e0bcff" opacity=".8">FOLLOW THE STARS</text><path d="M900 30H930V60M30 60V30H60M900 510H930V480" fill="none" stroke="#e0bcff" opacity=".3"/></svg>